<?xml version="1.0" encoding="utf-8"?>
<!-- Generator: Adobe Illustrator 25.1.0, SVG Export Plug-In . SVG Version: 6.00 Build 0)  -->
<svg version="1.1" id="Capa_1" focusable="false" xmlns="http://www.w3.org/2000/svg" xmlns:xlink="http://www.w3.org/1999/xlink"
	 x="0px" y="0px" viewBox="0 0 512 512" style="enable-background:new 0 0 512 512;" xml:space="preserve">
<g id="Solid">
	<path d="M403.9,447c-22.4-25-53.1-41.1-86.5-45.2c-22.1-2.6-44.9,0.9-67.9,10.6c-24.9,10.5-46,28.5-72.2,36.3
		c-26.9,8-53.5-1.3-71.1-24.9c-2.2-2.9-4.2-6-5.9-9.3c-13.1-23.8-12.9-52.1-12.7-77.1l0-3.2c0-4.7,3.8-8.5,8.5-8.5c0,0,0,0,0,0
		l72.1,0.1c-3-5.1-4.5-10.9-4.5-16.9v-28.6l-38.5,19.2l-7.6-15.1l50.7-25.4c4.2-2.1,9.3-0.4,11.3,3.8c0.6,1.2,0.9,2.5,0.9,3.8V309
		c0,9.3,7.6,16.9,16.9,16.9c4.7,0,8.5,3.8,8.5,8.5v17.9c5.4-4.4,8.5-11,8.5-17.9c0-4.7,3.8-8.5,8.5-8.5c4.7,0,8.5,3.8,8.5,8.5v17.9
		c5.4-4.4,8.5-11,8.5-17.9c0-4.7,3.8-8.5,8.5-8.5c4.7,0,8.5,3.8,8.5,8.5v17.9c5.4-4.4,8.5-11,8.5-17.9v-8.5
		c0-9.3-7.6-16.9-16.9-16.9H206c-4.7,0-8.5-3.8-8.5-8.5v-48.7c0-10.4-8.5-18.9-18.9-18.9c-2.9,0-5.8,0.7-8.5,2l-61.9,30.9l-7.6-15.1
		l61.9-30.9c17.7-8.8,39.2-1.7,48,16c2.5,5,3.8,10.5,3.8,16v40.3H242l40.1-34.6v-49.9H299v64.5l37.7,44c5.4,6.3,13.2,9.9,21.5,9.9
		c4.7,0,8.5,3.8,8.5,8.5v17.9c5.4-4.4,8.5-11,8.5-17.9c0-4.7,3.8-8.5,8.5-8.5s8.5,3.8,8.5,8.5v17.9c5.4-4.4,8.5-11,8.5-17.9
		c0-4.7,3.8-8.5,8.5-8.5c4.7,0,8.5,3.8,8.5,8.5v17.9c5.4-4.4,8.5-11,8.5-17.9v-8.5c0-9.3-7.6-16.9-16.9-16.9h-50.7
		c-2.6,0-5-1.2-6.6-3.2l-33.8-42.3c-1.2-1.5-1.9-3.4-1.9-5.3v-67.6h16.9v23l52.9-45.7l89.4-121.8l-3.7-7.4l-56.5,56.5l-12-12
		l60.5-60.5l-0.6-1.1h-80.2c-2.4,0-4.7,1-6.3,2.8l-48.1,53.5c-15.9,17.8-36.9,30.2-60.1,35.6c-77.1,17.7-143.7,56.4-187.7,109
		c-27.6,33-43.5,73.4-43.5,110.8v1.2c0,21.4,1,49.1,8.2,73.7c8.3,28.6,24.1,50.1,48.2,65.9c41,26.8,91.9,27.3,126.8,1.4
		c17.6-13.1,33.7-28.3,53.4-38.3c37.9-19.1,86.3-12.3,120.4,17l19.9,17c1.8,1.5,4.4,1.4,6-0.4c1.5-1.8,1.4-4.4-0.2-6.1L403.9,447z
		 M396.2,38.5c7,0,12.7,5.7,12.7,12.7s-5.7,12.7-12.7,12.7s-12.7-5.7-12.7-12.7C383.5,44.2,389.2,38.5,396.2,38.5z M358.1,89.2
		c9.3,0,16.9,7.6,16.9,16.9s-7.6,16.9-16.9,16.9c-9.3,0-16.9-7.6-16.9-16.9C341.2,96.8,348.8,89.2,358.1,89.2z M320.1,124.2
		l8.4,14.7l-118.3,67.6l-8.4-14.7L320.1,124.2z M349.7,221.4v28.5c0,2,0.7,3.9,2,5.4l30.7,36.9h-20.2l-29.4-36.8V236L349.7,221.4z"
		/>
</g>
</svg>
